# AST/ASF file generated using VICON BodyLanguage
# -----------------------------------------------
:version 1.10
:name VICON
:units
  mass 1.0
  length 0.45
  angle deg
:documentation
   .ast/.asf automatically generated from VICON data using
   VICON BodyBuilder and BodyLanguage model FoxedUp or BRILLIANT.MOD
:root
   order TX TY TZ RX RY RZ
   axis XYZ
   position 0 0 0  
   orientation 0 0 0 
:bonedata
  begin
     id 1 
     name lhipjoint
     direction 0.566809 -0.746272 0.349008 
     length 2.40479 
     axis 0 0 0  XYZ
  end
  begin
     id 2 
     name lfemur
     direction 0.34202 -0.939693 0  
     length 7.1578  
     axis 0 0 20  XYZ
    dof rx ry rz
    limits (-160.0 20.0)
           (-70.0 70.0)
           (-60.0 70.0)
  end
  begin
     id 3 
     name ltibia
     direction 0.34202 -0.939693 0   
     length 7.49137   
     axis 0 0 20   XYZ
    dof rx
    limits (-10.0 170.0)
  end
  begin
     id 4 
     name lfoot
     direction 0.0665746 -0.182912 0.980873   
     length 2.36784   
     axis -90 7.62852e-016 20   XYZ
    dof rx rz
    limits (-45.0 90.0)
           (-70.0 20.0)
  end
  begin
     id 5 
     name ltoes
     direction 1.53601e-011 -4.22058e-011 1   
     length 1.18966   
     axis -90 7.62852e-016 20   XYZ
    dof rx
    limits (-90.0 20.0)
  end
  begin
     id 6 
     name rhipjoint
     direction -0.550236 -0.756381 0.353735   
     length 2.37265  
     axis 0 0 0  XYZ 
  end
  begin
     id 7 
     name rfemur
     direction -0.34202 -0.939693 0   
     length 7.43386   
     axis 0 0 -20   XYZ
    dof rx ry rz
    limits (-160.0 20.0)
           (-70.0 70.0)
           (-70.0 60.0)
  end
  begin
     id 8 
     name rtibia
     direction -0.34202 -0.939693 0   
     length 7.50908   
     axis 0 0 -20   XYZ
    dof rx
    limits (-10.0 170.0)
 end
 begin
     id 9 
     name rfoot
     direction -0.0683029 -0.187661 0.979856   
     length 2.41173  
     axis -90 -7.62852e-016 -20   XYZ
    dof rx rz
    limits (-45.0 90.0)
           (-20.0 70.0)
  end
  begin
     id 10 
     name rtoes
     direction -1.53528e-011 -4.21968e-011 1   
     length 1.21082   
     axis -90 -7.62852e-016 -20   XYZ
    dof rx
    limits (-90.0 20.0)
  end
  begin
     id 11 
     name lowerback
     direction 0.013823 0.995423 -0.0945635   
     length 2.04495   
     axis 0 0 0   XYZ
    dof rx ry rz
    limits (-20.0 45.0)
           (-30.0 30.0)
           (-30.0 30.0)
  end
  begin
     id 12 
     name upperback
     direction 0.0276657 0.9994 -0.020853   
     length 2.05008   
     axis 0 0 0   XYZ
    dof rx ry rz
    limits (-20.0 45.0)
           (-30.0 30.0)
           (-30.0 30.0)
  end
  begin
     id 13 
     name thorax
     direction 0.019782 0.999531 0.0233827   
     length 2.06488   
     axis 0 0 0   XYZ
    dof rx ry rz
    limits (-20.0 45.0)
           (-30.0 30.0)
           (-30.0 30.0)
  end
  begin
     id 14 
     name lowerneck
     direction -0.0308541 0.994709 0.0979874   
     length 1.75553   
     axis 0 0 0   XYZ
    dof rx ry rz
    limits (-20.0 45.0)
           (-30.0 30.0)
           (-30.0 30.0)
  end
  begin
     id 15 
     name upperneck
     direction 0.0588398 0.995804 -0.0700903   
     length 1.76878   
     axis 0 0 0   XYZ
    dof rx ry rz
    limits (-20.0 45.0)
           (-30.0 30.0)
           (-30.0 30.0)
  end
  begin
     id 16
     name head
     direction 0.0209966 0.999159 -0.0352225  
     length 1.77193  
     axis 0 0 0   XYZ
    dof rx ry rz
    limits (-20.0 45.0)
           (-30.0 30.0)
           (-30.0 30.0)
  end
  begin
     id 17 
     name lclavicle
     direction 0.938182 0.335073 -0.0868338  
     length 3.58396  
     axis 0 0 0   XYZ
    dof ry rz
    limits (-20.0 10.0)
           (0.0 20.0)
  end
  begin
     id 18 
     name lhumerus
     direction 1 -4.48971e-011 -1.26313e-017   
     length 4.983   
     axis 180 -30 -90   XYZ
    dof rx ry rz
    limits (-60.0 90.0)
           (-90.0 90.0)
           (-90.0 90.0)
  end
  begin
     id 19
     name lradius
     direction 1 -4.48948e-011 -5.89033e-027   
     length 3.48356   
     axis 180 -30 -90   XYZ
    dof rx
    limits (-10.0 170.0)
  end
  begin
     id 20
     name lwrist
     direction 1 -4.48977e-011 -1.48983e-026   
     length 1.74178   
     axis 9.0955e-015 90 90   XYZ
    dof ry
    limits (-180.0 0.0)
 end
  begin
     id 21 
     name lhand
     direction 1 -4.49046e-011 -2.98066e-026   
     length 0.715259   
     axis 1.90115e-014 90 90   XYZ
    dof rx rz
    limits (-90.0 90.0)
           (-45.0 45.0)
  end
  begin
     id 22 
     name lfingers
     direction 1 -4.48907e-011 -5.95731e-026   
     length 0.576661   
     axis 3.80223e-014 90 90   XYZ
    dof rx
    limits (0.0 90.0)
  end
  begin
     id 23
     name lthumb
     direction 0.707107 -6.34963e-011 0.707107   
     length 0.827973   
     axis -90 45 -3.84942e-014   XYZ
    dof rx rz
    limits (-45.0 45.0)
           (-45.0 45.0)
  end
  begin
     id 24 
     name rclavicle
     direction -0.909637 0.398485 -0.11735   
     length 3.44819  
     axis 0 0 0   XYZ 
    dof ry rz
    limits (-10.0 20.0)
           (-20.0 0.0)
  end
  begin
     id 25 
     name rhumerus
     direction -1 -4.48978e-011 -1.09333e-027  
     length 5.2419   
     axis 180 30 90   XYZ
    dof rx ry rz
    limits (-90.0 60.0)
           (-90.0 90.0)
           (-90.0 90.0)
  end
  begin
     id 26 
     name rradius
     direction -1 -4.48953e-011 -7.61841e-027   
     length 3.44417   
     axis 180 30 90   XYZ
    dof rx
    limits (-10.0 170.0)
  end
  begin
     id 27 
     name rwrist
     direction -1 -4.48977e-011 -1.48983e-026   
     length 1.72209   
     axis 9.0955e-015 -90 -90   XYZ
    dof ry
    limits (-180.0 0.0)
  end
  begin
     id 28
     name rhand
     direction -1 -4.49027e-011 -2.98038e-026   
     length 0.622529   
     axis 1.90115e-014 -90 -90   XYZ
    dof rx rz
    limits (-90.0 90.0)
           (-45.0 45.0)
  end
  begin
     id 29
     name rfingers
     direction -1 -4.48838e-011 -5.95531e-026   
     length 0.501899   
     axis 3.80223e-014 -90 -90   XYZ
    dof rx
    limits (0.0 90.0)
  end
  begin
     id 30
     name rthumb
     direction -0.707107 -6.34937e-011 0.707107   
     length 0.720629   
     axis -90 -45 3.84942e-014   XYZ
    dof rx rz
    limits (-45.0 45.0)
           (-45.0 45.0)
  end
:hierarchy
  begin
    root lhipjoint rhipjoint lowerback
    lhipjoint lfemur
    lfemur ltibia
    ltibia lfoot
    lfoot ltoes
    rhipjoint rfemur
    rfemur rtibia
    rtibia rfoot
    rfoot rtoes
    lowerback upperback
    upperback thorax
    thorax lowerneck lclavicle rclavicle
    lowerneck upperneck
    upperneck head
    lclavicle lhumerus
    lhumerus lradius
    lradius lwrist
    lwrist lhand lthumb
    lhand lfingers
    rclavicle rhumerus
    rhumerus rradius
    rradius rwrist
    rwrist rhand rthumb
    rhand rfingers
  end

#!OML:ASF F:\VICON\USERDATA\Patient Classification 1\PLAYGROUND\JustinFriday\JustinFriday.ASF
:FULLY-SPECIFIED
:DEGREES
274
root 31.0564 18.1467 14.2747 181.835 54.9164 -177.068
lowerback 9.09457 0.103017 -7.50139
upperback 1.89308 -0.482126 -0.101076
thorax -3.05923 -0.138983 4.1708
lowerneck -4.87269 2.54862 -2.52715
upperneck 21.9279 4.01491 3.43284
head 7.39011 2.34287 1.89637
rclavicle 5.00937e-014 2.3059e-014
rhumerus -33.7504 -15.9136 -76.15
rradius 26.1742
rwrist -10.2112
rhand -18.0617 -23.6146
rfingers 7.12502
rthumb 8.21079 -53.4351
lclavicle 5.00937e-014 2.3059e-014
lhumerus -21.4808 -2.2837 79.531
lradius 51.003
lwrist 3.406
lhand -14.7019 -10.0236
lfingers 7.12502
lthumb 11.4522 19.6436
rfemur -23.8873 7.85978 14.8084
rtibia 54.817
rfoot -9.25256 -4.1805
rtoes 8.16021
lfemur -4.6815 11.4575 -24.7191
ltibia 26.4182
lfoot -14.3839 -8.19694
ltoes 14.9981
275
root 31.1428 18.1468 14.2072 182.086 54.4111 -176.999
lowerback 9.06958 0.111716 -7.60172
upperback 1.83502 -0.481657 -0.0707973
thorax -3.10495 -0.135457 4.25918
lowerneck -4.78022 2.42372 -2.35993
upperneck 21.7011 3.84182 3.26219
head 7.31224 2.25496 1.79253
rclavicle 5.85421e-014 -1.90833e-014
rhumerus -33.7304 -16.075 -75.9892
rradius 26.248
rwrist -9.73127
rhand -17.5729 -23.359
rfingers 7.12502
rthumb 8.68249 -53.1605
lclavicle 5.85421e-014 -1.90833e-014
lhumerus -21.2864 -3.1574 79.9
lradius 52.1309
lwrist 3.60468
lhand -15.3413 -10.5707
lfingers 7.12502
lthumb 10.8356 19.1298
rfemur -24.7274 7.97857 14.7388
rtibia 53.433
rfoot -9.38839 -4.03999
rtoes 7.7016
lfemur -4.27066 11.158 -24.6445
ltibia 26.0513
lfoot -14.5169 -8.36537
ltoes 15.063
276
root 31.2302 18.1481 14.1365 182.142 53.9079 -177.044
lowerback 9.08531 0.0741574 -7.69166
upperback 1.83436 -0.541047 -0.100397
thorax -3.10585 -0.163557 4.28568
lowerneck -4.5895 2.31743 -2.24722
upperneck 21.3036 3.68303 3.12215
head 7.15835 2.16862 1.70301
rclavicle -6.47044e-014 7.15625e-015
rhumerus -33.6154 -16.5569 -75.7988
rradius 26.1231
rwrist -8.91737
rhand -17.2079 -22.9848
rfingers 7.12502
rthumb 9.03474 -52.7713
lclavicle -6.47044e-014 7.15625e-015
lhumerus -21.2045 -3.81768 80.1711
lradius 53.4112
lwrist 3.50514
lhand -16.1906 -11.0112
lfingers 7.12502
lthumb 10.0163 18.7304
rfemur -25.3702 8.31394 14.5733
rtibia 51.9576
rfoot -9.62446 -4.1772
rtoes 6.71012
lfemur -3.70957 10.8901 -24.6144
ltibia 25.6313
lfoot -14.6516 -8.65185
ltoes 15.0688
277
root 31.3167 18.1497 14.0673 181.616 53.4579 -177.716
lowerback 9.25698 -0.0604419 -8.26335
upperback 1.83756 -0.786185 -0.113442
thorax -3.15643 -0.276339 4.62423
lowerneck -4.81327 2.45374 -2.56638
upperneck 21.4102 3.88825 3.24899
head 7.21756 2.25234 1.81905
rclavicle -4.59193e-014 2.70347e-014
rhumerus -33.2752 -16.141 -75.9801
rradius 26.0885
rwrist -9.10271
rhand -17.726 -22.9412
rfingers 7.12502
rthumb 8.53479 -52.7487
lclavicle -4.59193e-014 2.70347e-014
lhumerus -21.3249 -3.89662 80.4586
lradius 54.7409
lwrist 3.1867
lhand -16.0906 -10.8801
lfingers 7.12502
lthumb 10.1128 18.8569
rfemur -25.9232 8.69636 14.0312
rtibia 50.3708
rfoot -9.29113 -4.4779
rtoes 5.83721
lfemur -3.07297 10.7246 -24.9657
ltibia 25.1756
lfoot -14.7601 -8.87334
ltoes 14.5281
278
root 31.4055 18.1557 13.9847 181.758 53.1252 -177.554
lowerback 9.34893 -0.183375 -8.25743
upperback 1.86072 -0.952479 0.00710978
thorax -3.15773 -0.359454 4.7682
lowerneck -5.23627 2.56911 -2.86422
upperneck 21.7646 4.08828 3.3341
head 7.39471 2.33424 1.92927
rclavicle 2.59414e-014 1.90833e-014
rhumerus -32.9616 -15.4856 -76.1687
rradius 26.1269
rwrist -9.25179
rhand -18.1239 -23.1633
rfingers 7.12502
rthumb 8.15077 -52.986
lclavicle 2.59414e-014 1.90833e-014
lhumerus -21.4283 -4.02889 80.7791
lradius 55.8474
lwrist 2.85867
lhand -16.9751 -10.7621
lfingers 7.12502
lthumb 9.25938 19.0146
rfemur -26.3945 8.99814 14.0348
rtibia 48.6517
rfoot -8.99355 -4.32598
rtoes 6.23114
lfemur -2.38736 10.5644 -24.8221
ltibia 24.6784
lfoot -14.9494 -8.92392
ltoes 13.619
279
root 31.4954 18.1646 13.9008 182.492 52.77 -176.748
lowerback 9.31336 -0.16935 -7.75701
upperback 1.86775 -0.880556 0.140325
thorax -3.14786 -0.330137 4.61727
lowerneck -5.24934 2.4594 -2.84011
upperneck 21.6799 3.94106 3.27004
head 7.37626 2.25889 1.89172
rclavicle -5.59579e-014 5.40694e-014
rhumerus -32.9189 -15.41 -76.1512
rradius 26.1528
rwrist -8.99638
rhand -18.5813 -23.487
rfingers 7.12502
rthumb 7.70927 -53.3265
lclavicle -5.59579e-014 5.40694e-014
lhumerus -21.3054 -4.50095 81.1008
lradius 56.8165
lwrist 2.55866
lhand -16.9922 -11.2489
lfingers 7.12502
lthumb 9.24287 18.5285
rfemur -26.8819 9.25793 14.4556
rtibia 46.8808
rfoot -9.0773 -3.82286
rtoes 8.16454
lfemur -1.75198 10.4448 -24.2406
ltibia 24.1819
lfoot -14.9805 -9.22594
ltoes 13.444
280
root 31.5787 18.167 13.8392 182.843 52.0237 -176.635
lowerback 9.41759 -0.154428 -7.69129
upperback 1.76359 -0.871676 0.109213
thorax -3.31828 -0.317605 4.54916
lowerneck -4.95888 2.30578 -2.65445
upperneck 21.2484 3.68139 3.26721
head 7.19487 2.14467 1.82397
rclavicle -3.89618e-014 -1.27222e-014
rhumerus -33.0305 -15.4362 -76.2253
rradius 26.3288
rwrist -9.50213
rhand -19.3148 -23.6866
rfingers 7.12502
rthumb 7.00124 -53.5508
lclavicle -3.89618e-014 -1.27222e-014
lhumerus -21.0363 -5.3104 81.3307
lradius 57.7278
lwrist 2.5239
lhand -15.7554 -12.0963
lfingers 7.12502
lthumb 10.4361 17.6246
rfemur -27.5541 9.25506 14.481
rtibia 45.0779
rfoot -9.03146 -3.97516
rtoes 8.53972
lfemur -1.36428 10.2134 -24.0368
ltibia 23.6587
lfoot -14.5097 -9.73194
ltoes 14.5794
281
root 31.6544 18.1607 13.8044 182.667 50.7881 -177.502
lowerback 9.75997 -0.291795 -8.45888
upperback 1.48778 -1.18338 0.0086743
thorax -3.74239 -0.438517 4.92315
lowerneck -4.86028 2.18659 -2.61288
upperneck 21.0819 3.4818 3.38476
head 7.12719 2.06142 1.83499
rclavicle -3.86636e-014 2.14687e-014
rhumerus -33.1209 -15.0585 -76.4596
rradius 26.6371
rwrist -10.4488
rhand -19.8077 -23.7065
rfingers 7.12502
rthumb 6.52547 -53.586
lclavicle -3.86636e-014 2.14687e-014
lhumerus -21.0009 -6.15298 81.5333
lradius 58.7842
lwrist 2.66616
lhand -15.316 -12.3941
lfingers 7.12502
lthumb 10.8599 17.3051
rfemur -28.4485 8.97851 13.8186
rtibia 43.2519
rfoot -9.07368 -4.53724
rtoes 9.42814
lfemur -1.39836 9.94838 -24.4049
ltibia 23.1628
lfoot -13.9523 -10.6368
ltoes 15.1732
282
root 31.7522 18.1468 13.713 182.147 50.7149 -178.107
lowerback 9.69905 -0.17142 -8.79003
upperback 1.55904 -1.04701 -0.128909
thorax -3.64899 -0.370783 4.94569
lowerneck -4.92869 2.11845 -2.88943
upperneck 21.1511 3.37943 3.63441
head 7.15467 2.01478 1.95814
rclavicle -7.95139e-016 -2.3059e-014
rhumerus -33.031 -14.7238 -76.6263
rradius 26.7817
rwrist -10.8552
rhand -19.9333 -23.7783
rfingers 7.12502
rthumb 6.40419 -53.6615
lclavicle -7.95139e-016 -2.3059e-014
lhumerus -21.1735 -6.68269 81.7698
lradius 60.0441
lwrist 2.80171
lhand -14.8562 -12.1905
lfingers 7.12502
lthumb 11.3034 17.4849
rfemur -28.7395 9.36952 13.258
rtibia 41.3674
rfoot -9.23478 -4.36058
rtoes 13.1504
lfemur -0.626111 9.91961 -24.8432
ltibia 22.6406
lfoot -14.3155 -10.5496
ltoes 14.4949
283
root 31.8448 18.1382 13.6334 182.344 50.4011 -178.078
lowerback 9.55053 -0.188046 -8.66769
upperback 1.56719 -1.043 -0.176864
thorax -3.56163 -0.374719 4.82267
lowerneck -5.03315 2.11162 -3.06429
upperneck 21.2666 3.36744 3.8086
head 7.20438 2.01341 2.04824
rclavicle -5.13858e-014 1.74931e-014
rhumerus -32.8887 -14.5827 -76.7564
rradius 26.8294
rwrist -10.9278
rhand -19.7053 -23.8838
rfingers 7.12502
rthumb 6.62434 -53.7602
lclavicle -5.13858e-014 1.74931e-014
lhumerus -21.285 -7.09432 81.9284
lradius 61.0671
lwrist 2.80716
lhand -14.5088 -12.2158
lfingers 7.12502
lthumb 11.6385 17.441
rfemur -29.2772 9.34651 13.3219
rtibia 39.3983
rfoot -8.87749 -4.85835
rtoes 12.6493
lfemur -0.143369 9.94633 -24.7923
ltibia 22.1323
lfoot -14.4345 -10.6628
ltoes 14.1952
284
root 31.9352 18.14 13.5583 182.878 49.924 -177.743
lowerback 9.424 -0.228155 -8.41861
upperback 1.55255 -1.06166 -0.181012
thorax -3.50907 -0.389783 4.67798
lowerneck -5.46091 2.04951 -2.83518
upperneck 21.5912 3.29358 3.693
head 7.39654 1.98939 1.98354
rclavicle 1.07543e-013 1.90833e-014
rhumerus -32.8026 -14.2747 -77.0571
rradius 27.0539
rwrist -11.3206
rhand -19.636 -24.1272
rfingers 7.12502
rthumb 6.69123 -54.0015
lclavicle 1.07543e-013 1.90833e-014
lhumerus -21.162 -7.6073 81.9855
lradius 61.6676
lwrist 2.90461
lhand -14.6148 -12.7704
lfingers 7.12502
lthumb 11.5362 16.8921
rfemur -29.8446 9.10799 13.7001
rtibia 37.3743
rfoot -8.38601 -5.66434
rtoes 8.9939
lfemur 0.224532 9.65319 -24.5351
ltibia 21.6105
lfoot -14.3443 -10.6905
ltoes 15.0892
285
root 32.0301 18.1413 13.4797 183.071 49.5818 -177.587
lowerback 9.45429 -0.175506 -8.34224
upperback 1.59765 -0.982858 -0.193459
thorax -3.4912 -0.352765 4.61259
lowerneck -5.79794 1.95088 -2.70869
upperneck 21.7598 3.16674 3.59718
head 7.52127 1.93093 1.93208
rclavicle 3.74709e-014 1.11319e-014
rhumerus -32.7298 -13.8955 -77.381
rradius 27.2804
rwrist -11.9562
rhand -20.0537 -24.6696
rfingers 7.12502
rthumb 6.28794 -54.5563
lclavicle 3.74709e-014 1.11319e-014
lhumerus -20.9931 -8.03844 82.0797
lradius 62.188
lwrist 3.21773
lhand -14.848 -13.5659
lfingers 7.12502
lthumb 11.3114 16.109
rfemur -30.1096 9.07996 13.9313
rtibia 35.4129
rfoot -8.201 -6.0539
rtoes 8.13581
lfemur 0.850271 9.40613 -24.354
ltibia 21.0229
lfoot -14.1966 -10.8157
ltoes 16.4621
286
root 32.128 18.1254 13.3996 183.027 49.1939 -177.913
lowerback 9.36146 -0.157544 -8.6478
upperback 1.57939 -0.981157 -0.21158
thorax -3.45342 -0.349232 4.76394
lowerneck -5.81318 1.89431 -2.95382
upperneck 21.6277 3.08044 3.75779
head 7.47602 1.88201 2.01608
rclavicle -1.18277e-014 1.98785e-014
rhumerus -32.6767 -13.7866 -77.4106
rradius 27.3836
rwrist -12.0811
rhand -20.5091 -25.028
rfingers 7.12502
rthumb 5.84831 -54.9273
lclavicle -1.18277e-014 1.98785e-014
lhumerus -21.1057 -8.07356 82.3088
lradius 62.9522
lwrist 3.11724
lhand -15.2515 -14.2119
lfingers 7.12502
lthumb 10.9222 15.4841
rfemur -30.5524 8.7318 13.8634
rtibia 33.5904
rfoot -8.00544 -6.08025
rtoes 8.76119
lfemur 1.49001 9.38566 -24.4946
ltibia 20.2559
lfoot -14.0017 -11.0552
ltoes 17.4499
